<svg width="212" height="45" viewBox="0 0 212 45" fill="none" xmlns="http://www.w3.org/2000/svg">
<g filter="url(#filter0_n_909_405)">
<path d="M2.088 30V4.08H22.788C23.748 4.08 24.612 4.32 25.38 4.8C26.172 5.256 26.808 5.88 27.288 6.672C27.768 7.44 28.008 8.304 28.008 9.264V24.816C28.008 25.776 27.768 26.652 27.288 27.444C26.808 28.212 26.172 28.836 25.38 29.316C24.612 29.772 23.748 30 22.788 30H2.088ZM7.452 24.78H22.536C22.608 24.78 22.656 24.768 22.68 24.744C22.728 24.696 22.752 24.636 22.752 24.564V9.516C22.752 9.444 22.728 9.396 22.68 9.372C22.656 9.324 22.608 9.3 22.536 9.3H7.452C7.404 9.3 7.356 9.324 7.308 9.372C7.26 9.396 7.236 9.444 7.236 9.516V24.564C7.236 24.636 7.26 24.696 7.308 24.744C7.356 24.768 7.404 24.78 7.452 24.78ZM37.0074 30C36.0954 30 35.2434 29.772 34.4514 29.316C33.6834 28.836 33.0714 28.212 32.6154 27.444C32.1594 26.676 31.9314 25.836 31.9314 24.924V9.12H37.0434V24.672C37.0434 24.72 37.0674 24.768 37.1154 24.816C37.1634 24.864 37.2114 24.888 37.2594 24.888H47.7714C47.8194 24.888 47.8674 24.864 47.9154 24.816C47.9634 24.768 47.9874 24.72 47.9874 24.672V9.12H53.0994V24.924C53.0994 25.836 52.8714 26.676 52.4154 27.444C51.9594 28.212 51.3474 28.836 50.5794 29.316C49.8114 29.772 48.9594 30 48.0234 30H37.0074ZM61.6503 30C60.7383 30 59.8983 29.772 59.1303 29.316C58.3623 28.836 57.7383 28.212 57.2583 27.444C56.8023 26.676 56.5743 25.836 56.5743 24.924V14.196C56.5743 13.284 56.8023 12.444 57.2583 11.676C57.7383 10.908 58.3623 10.296 59.1303 9.84C59.8983 9.36 60.7383 9.12 61.6503 9.12H72.6663C73.6023 9.12 74.4543 9.36 75.2223 9.84C75.9903 10.296 76.6023 10.908 77.0583 11.676C77.5143 12.444 77.7423 13.284 77.7423 14.196V24.924C77.7423 25.836 77.5143 26.676 77.0583 27.444C76.6023 28.212 75.9903 28.836 75.2223 29.316C74.4543 29.772 73.6023 30 72.6663 30H61.6503ZM61.9023 24.888H72.4143C72.4623 24.888 72.5103 24.864 72.5583 24.816C72.6063 24.768 72.6303 24.72 72.6303 24.672V14.448C72.6303 14.4 72.6063 14.352 72.5583 14.304C72.5103 14.256 72.4623 14.232 72.4143 14.232H61.9023C61.8543 14.232 61.8063 14.256 61.7583 14.304C61.7103 14.352 61.6863 14.4 61.6863 14.448V24.672C61.6863 24.72 61.7103 24.768 61.7583 24.816C61.8063 24.864 61.8543 24.888 61.9023 24.888ZM86.0161 30C85.0801 30 84.2281 29.772 83.4601 29.316C82.6921 28.836 82.0681 28.212 81.5881 27.444C81.1321 26.676 80.9041 25.836 80.9041 24.924V2.82H86.0161V9.12H93.9721V14.232H86.0161V24.672C86.0161 24.72 86.0401 24.768 86.0881 24.816C86.1361 24.864 86.1841 24.888 86.2321 24.888H93.9721V30H86.0161ZM97.6042 30V2.28H102.716V9.12H113.696C114.608 9.12 115.448 9.36 116.216 9.84C116.984 10.296 117.596 10.908 118.052 11.676C118.532 12.444 118.772 13.284 118.772 14.196V30H113.66V14.448C113.66 14.4 113.636 14.352 113.588 14.304C113.564 14.256 113.516 14.232 113.444 14.232H102.932C102.884 14.232 102.836 14.256 102.788 14.304C102.74 14.352 102.716 14.4 102.716 14.448V30H97.6042ZM126.69 30C125.778 30 124.926 29.772 124.134 29.316C123.366 28.836 122.754 28.212 122.298 27.444C121.842 26.676 121.614 25.836 121.614 24.924V16.968H137.67V14.448C137.67 14.4 137.646 14.352 137.598 14.304C137.55 14.256 137.502 14.232 137.454 14.232H121.614V9.12H137.706C138.642 9.12 139.494 9.36 140.262 9.84C141.03 10.296 141.642 10.908 142.098 11.676C142.554 12.444 142.782 13.284 142.782 14.196V30H126.69ZM126.942 24.888H137.67V21.54H126.726V24.672C126.726 24.72 126.75 24.768 126.798 24.816C126.846 24.864 126.894 24.888 126.942 24.888ZM146.331 30V9.12H162.423C163.359 9.12 164.211 9.36 164.979 9.84C165.747 10.296 166.359 10.908 166.815 11.676C167.271 12.444 167.499 13.284 167.499 14.196V30H162.387V14.448C162.387 14.4 162.363 14.352 162.315 14.304C162.291 14.256 162.243 14.232 162.171 14.232H151.659C151.611 14.232 151.563 14.256 151.515 14.304C151.467 14.352 151.443 14.4 151.443 14.448V30H146.331Z" fill="#E91154"/>
</g>
<g filter="url(#filter1_n_909_405)">
<path d="M210 9H173.854L172 10.5V30H208.146L210 28.5V9Z" fill="#F92761"/>
</g>
<path d="M179.776 25C179.386 25 179.031 24.905 178.711 24.715C178.391 24.515 178.131 24.255 177.931 23.935C177.741 23.615 177.646 23.265 177.646 22.885V22.105H179.776V22.78C179.776 22.8 179.786 22.82 179.806 22.84C179.826 22.86 179.846 22.87 179.866 22.87H186.076C186.096 22.87 186.116 22.86 186.136 22.84C186.156 22.82 186.166 22.8 186.166 22.78V20.68C186.166 20.65 186.156 20.63 186.136 20.62C186.116 20.6 186.096 20.59 186.076 20.59H177.646V14.2H188.296V16.33H179.866C179.846 16.33 179.826 16.34 179.806 16.36C179.786 16.38 179.776 16.4 179.776 16.42V18.355C179.776 18.375 179.786 18.395 179.806 18.415C179.826 18.425 179.846 18.43 179.866 18.43H186.166C186.546 18.43 186.896 18.525 187.216 18.715C187.546 18.905 187.806 19.165 187.996 19.495C188.196 19.815 188.296 20.17 188.296 20.56V22.885C188.296 23.265 188.196 23.615 187.996 23.935C187.806 24.255 187.546 24.515 187.216 24.715C186.896 24.905 186.546 25 186.166 25H179.776ZM190.052 25V22.87H192.182V25H190.052ZM195.684 25C195.294 25 194.939 24.895 194.619 24.685C194.299 24.465 194.039 24.185 193.839 23.845C193.649 23.495 193.554 23.13 193.554 22.75V16.375C193.554 15.985 193.649 15.625 193.839 15.295C194.039 14.965 194.299 14.7 194.619 14.5C194.939 14.3 195.294 14.2 195.684 14.2H202.074C202.464 14.2 202.819 14.3 203.139 14.5C203.459 14.7 203.714 14.965 203.904 15.295C204.104 15.625 204.204 15.985 204.204 16.375V22.75C204.204 23.13 204.104 23.495 203.904 23.845C203.714 24.185 203.459 24.465 203.139 24.685C202.819 24.895 202.464 25 202.074 25H195.684ZM196.764 22.735H201.984C202.004 22.735 202.024 22.73 202.044 22.72C202.064 22.7 202.074 22.675 202.074 22.645V18.295L196.764 22.735ZM195.684 20.83L200.994 16.39H195.774C195.754 16.39 195.734 16.4 195.714 16.42C195.694 16.43 195.684 16.45 195.684 16.48V20.83Z" fill="white"/>
<rect x="2" y="33" width="208" height="12" fill="#D9D9D9"/>
<path d="M37.4808 36.3H36.6408V36.11C36.6408 36.01 36.6342 35.9467 36.6208 35.92C36.6142 35.8867 36.5808 35.8467 36.5208 35.8C36.4608 35.7533 36.4142 35.7267 36.3808 35.72C36.3475 35.7067 36.2708 35.7 36.1508 35.7H33.6708C33.5508 35.7 33.4742 35.7067 33.4408 35.72C33.4075 35.7267 33.3608 35.7533 33.3008 35.8C33.2408 35.8467 33.2042 35.8867 33.1908 35.92C33.1842 35.9467 33.1808 36.01 33.1808 36.11V40.89C33.1808 40.99 33.1842 41.0567 33.1908 41.09C33.2042 41.1167 33.2408 41.1533 33.3008 41.2C33.3608 41.2467 33.4075 41.2767 33.4408 41.29C33.4742 41.2967 33.5508 41.3 33.6708 41.3H36.1508C36.2708 41.3 36.3475 41.2967 36.3808 41.29C36.4142 41.2767 36.4608 41.2467 36.5208 41.2C36.5808 41.1533 36.6142 41.1167 36.6208 41.09C36.6342 41.0567 36.6408 40.99 36.6408 40.89V40.7H37.4808V41.1C37.4808 41.3 37.4008 41.4667 37.2408 41.6L37.0008 41.8C36.8408 41.9333 36.6808 42 36.5208 42H33.3008C33.1408 42 32.9808 41.9333 32.8208 41.8L32.5808 41.6C32.4208 41.4667 32.3408 41.3 32.3408 41.1V35.9C32.3408 35.7 32.4208 35.5333 32.5808 35.4L32.8208 35.2C32.9808 35.0667 33.1408 35 33.3008 35H36.5208C36.6808 35 36.8408 35.0667 37.0008 35.2L37.2408 35.4C37.4008 35.5333 37.4808 35.7 37.4808 35.9V36.3ZM38.5717 37H38.9217C39.0417 37 39.1217 37.01 39.1617 37.03C39.2083 37.0433 39.2717 37.0833 39.3517 37.15C39.4583 37.2367 39.5117 37.32 39.5117 37.4H39.5517C39.5517 37.32 39.625 37.2367 39.7717 37.15C39.8917 37.0767 39.9717 37.0333 40.0117 37.02C40.0583 37.0067 40.1417 37 40.2617 37H41.1817C41.3417 37 41.5017 37.0667 41.6617 37.2L41.9017 37.4L41.3017 37.9L41.1817 37.8C41.1217 37.7533 41.075 37.7267 41.0417 37.72C41.0083 37.7067 40.9317 37.7 40.8117 37.7H40.3817C40.2617 37.7 40.1783 37.7067 40.1317 37.72C40.0917 37.7333 40.0117 37.7767 39.8917 37.85C39.7717 37.9233 39.7017 37.9767 39.6817 38.01C39.6617 38.0433 39.6517 38.11 39.6517 38.21V42H38.8117V38.11C38.8117 38.01 38.805 37.9467 38.7917 37.92C38.785 37.8867 38.7517 37.8467 38.6917 37.8C38.6317 37.7533 38.595 37.7167 38.5817 37.69C38.575 37.6567 38.5717 37.59 38.5717 37.49V37ZM46.2714 41.6H46.2314C46.2314 41.68 46.158 41.7633 46.0114 41.85C45.8914 41.9233 45.808 41.9667 45.7614 41.98C45.7214 41.9933 45.6414 42 45.5214 42H43.8114C43.6514 42 43.4914 41.9333 43.3314 41.8L43.0914 41.6C42.9314 41.4667 42.8514 41.3 42.8514 41.1V39.9C42.8514 39.7 42.9314 39.5333 43.0914 39.4L43.3314 39.2C43.4914 39.0667 43.6514 39 43.8114 39H45.6014C45.728 39 45.808 39.0067 45.8414 39.02C45.8747 39.0267 45.918 39.0533 45.9714 39.1C46.0514 39.1667 46.0914 39.2333 46.0914 39.3H46.1314V38.11C46.1314 38.01 46.1247 37.9467 46.1114 37.92C46.1047 37.8867 46.0714 37.8467 46.0114 37.8C45.9514 37.7533 45.9047 37.7267 45.8714 37.72C45.838 37.7067 45.7614 37.7 45.6414 37.7H44.0214C43.9014 37.7 43.818 37.71 43.7714 37.73C43.7314 37.7433 43.6514 37.8 43.5314 37.9L42.9314 37.4L43.1714 37.2C43.2914 37.1 43.3714 37.0433 43.4114 37.03C43.458 37.01 43.5414 37 43.6614 37H46.0114C46.1714 37 46.3314 37.0667 46.4914 37.2L46.7314 37.4C46.8914 37.5333 46.9714 37.7 46.9714 37.9V40.89C46.9714 40.99 46.9747 41.0567 46.9814 41.09C46.9947 41.1167 47.0314 41.1533 47.0914 41.2C47.1514 41.2467 47.1847 41.2867 47.1914 41.32C47.2047 41.3467 47.2114 41.41 47.2114 41.51V42H46.8614C46.7414 42 46.658 41.9933 46.6114 41.98C46.5714 41.96 46.5114 41.9167 46.4314 41.85C46.3247 41.7633 46.2714 41.68 46.2714 41.6ZM43.6914 40.11V40.89C43.6914 40.99 43.6947 41.0567 43.7014 41.09C43.7147 41.1167 43.7514 41.1533 43.8114 41.2C43.8714 41.2467 43.918 41.2767 43.9514 41.29C43.9847 41.2967 44.0614 41.3 44.1814 41.3H45.4014C45.5214 41.3 45.6014 41.2933 45.6414 41.28C45.688 41.2667 45.7714 41.2233 45.8914 41.15C46.0114 41.0767 46.0814 41.0233 46.1014 40.99C46.1214 40.9567 46.1314 40.89 46.1314 40.79V40.11C46.1314 40.01 46.1247 39.9467 46.1114 39.92C46.1047 39.8867 46.0714 39.8467 46.0114 39.8C45.9514 39.7533 45.9047 39.7267 45.8714 39.72C45.838 39.7067 45.7614 39.7 45.6414 39.7H44.1814C44.0614 39.7 43.9847 39.7067 43.9514 39.72C43.918 39.7267 43.8714 39.7533 43.8114 39.8C43.7514 39.8467 43.7147 39.8867 43.7014 39.92C43.6947 39.9467 43.6914 40.01 43.6914 40.11ZM52.4154 38.3H51.5754V38.11C51.5754 38.01 51.5688 37.9467 51.5554 37.92C51.5488 37.8867 51.5154 37.8467 51.4554 37.8C51.3954 37.7533 51.3488 37.7267 51.3154 37.72C51.2821 37.7067 51.2054 37.7 51.0854 37.7H49.7454C49.6254 37.7 49.5488 37.7067 49.5154 37.72C49.4821 37.7267 49.4354 37.7533 49.3754 37.8C49.3154 37.8467 49.2788 37.8867 49.2654 37.92C49.2588 37.9467 49.2554 38.01 49.2554 38.11V40.89C49.2554 40.99 49.2588 41.0567 49.2654 41.09C49.2788 41.1167 49.3154 41.1533 49.3754 41.2C49.4354 41.2467 49.4821 41.2767 49.5154 41.29C49.5488 41.2967 49.6254 41.3 49.7454 41.3H51.0854C51.2054 41.3 51.2821 41.2967 51.3154 41.29C51.3488 41.2767 51.3954 41.2467 51.4554 41.2C51.5154 41.1533 51.5488 41.1167 51.5554 41.09C51.5688 41.0567 51.5754 40.99 51.5754 40.89V40.7H52.4154V41.1C52.4154 41.3 52.3354 41.4667 52.1754 41.6L51.9354 41.8C51.7754 41.9333 51.6154 42 51.4554 42H49.3754C49.2154 42 49.0554 41.9333 48.8954 41.8L48.6554 41.6C48.4954 41.4667 48.4154 41.3 48.4154 41.1V37.9C48.4154 37.7 48.4954 37.5333 48.6554 37.4L48.8954 37.2C49.0554 37.0667 49.2154 37 49.3754 37H51.4554C51.6154 37 51.7754 37.0667 51.9354 37.2L52.1754 37.4C52.3354 37.5333 52.4154 37.7 52.4154 37.9V38.3ZM53.5619 42V34.6H54.4019V39.15H55.2419L56.1419 37.68C56.2152 37.5667 56.2686 37.49 56.3019 37.45C56.3419 37.41 56.4119 37.3533 56.5119 37.28L56.7019 37.15C56.8086 37.0767 56.8819 37.0333 56.9219 37.02C56.9686 37.0067 57.0519 37 57.1719 37H57.3719V37.39C57.3719 37.5433 57.3619 37.64 57.3419 37.68C57.3219 37.7133 57.2519 37.7633 57.1319 37.83L57.0219 37.89C56.9219 37.95 56.8552 38 56.8219 38.04C56.7886 38.0733 56.7319 38.1467 56.6519 38.26L56.0019 39.27C55.9419 39.3633 55.8819 39.4267 55.8219 39.46V39.5C55.8819 39.5133 55.9586 39.59 56.0519 39.73L57.5119 42H56.5819L55.2519 39.85H54.4019V42H53.5619ZM62.2119 35.6V37H63.4919C63.5786 37.0667 63.6286 37.12 63.6419 37.16C63.6619 37.1933 63.6719 37.2867 63.6719 37.44V37.7H62.2119V40.89C62.2119 40.99 62.2152 41.0567 62.2219 41.09C62.2352 41.1167 62.2719 41.1533 62.3319 41.2C62.3919 41.2467 62.4386 41.2767 62.4719 41.29C62.5052 41.2967 62.5819 41.3 62.7019 41.3H63.6119C63.6986 41.3667 63.7486 41.42 63.7619 41.46C63.7819 41.4933 63.7919 41.5867 63.7919 41.74V42H62.3319C62.1719 42 62.0119 41.9333 61.8519 41.8L61.6119 41.6C61.4519 41.4667 61.3719 41.3 61.3719 41.1V37.7H60.8919C60.8052 37.6333 60.7519 37.5833 60.7319 37.55C60.7186 37.51 60.7119 37.4133 60.7119 37.26V37H61.3719V35.6H62.2119ZM66.3212 37H68.0712C68.2312 37 68.3912 37.0667 68.5512 37.2L68.7912 37.4C68.9512 37.5333 69.0312 37.7 69.0312 37.9V42H68.1912V38.11C68.1912 38.01 68.1845 37.9467 68.1712 37.92C68.1645 37.8867 68.1312 37.8467 68.0712 37.8C68.0112 37.7533 67.9645 37.7267 67.9312 37.72C67.8979 37.7067 67.8212 37.7 67.7012 37.7H66.4212C66.2945 37.7 66.2079 37.7067 66.1612 37.72C66.1212 37.7333 66.0412 37.7767 65.9212 37.85C65.8012 37.9233 65.7312 37.9767 65.7112 38.01C65.6912 38.0433 65.6812 38.11 65.6812 38.21V42H64.8412V34.6H65.6812V37.47H65.7212C65.7212 37.41 65.7945 37.3167 65.9412 37.19C66.0879 37.0633 66.2145 37 66.3212 37ZM73.9918 41.1L74.5918 41.6L74.3518 41.8C74.2318 41.9 74.1485 41.96 74.1018 41.98C74.0618 41.9933 73.9818 42 73.8618 42H71.1918C71.0318 42 70.8718 41.9333 70.7118 41.8L70.4718 41.6C70.3118 41.4667 70.2318 41.3 70.2318 41.1V37.9C70.2318 37.7 70.3118 37.5333 70.4718 37.4L70.7118 37.2C70.8718 37.0667 71.0318 37 71.1918 37H73.5218C73.6552 37 73.8152 37.0667 74.0018 37.2L74.2518 37.4C74.4118 37.52 74.4918 37.6867 74.4918 37.9V39.95H71.0718V40.89C71.0718 40.99 71.0752 41.0567 71.0818 41.09C71.0952 41.1167 71.1318 41.1533 71.1918 41.2C71.2518 41.2467 71.2985 41.2767 71.3318 41.29C71.3652 41.2967 71.4418 41.3 71.5618 41.3H73.5018C73.6218 41.3 73.7018 41.2933 73.7418 41.28C73.7885 41.26 73.8718 41.2 73.9918 41.1ZM73.6518 39.3V38.11C73.6518 38.01 73.6452 37.9467 73.6318 37.92C73.6252 37.8867 73.5918 37.8467 73.5318 37.8C73.4718 37.7533 73.4252 37.7267 73.3918 37.72C73.3585 37.7067 73.2818 37.7 73.1618 37.7H71.5618C71.4418 37.7 71.3652 37.7067 71.3318 37.72C71.2985 37.7267 71.2518 37.7533 71.1918 37.8C71.1318 37.8467 71.0952 37.8867 71.0818 37.92C71.0752 37.9467 71.0718 38.01 71.0718 38.11V39.3H73.6518ZM82.1908 38.3H81.3508V38.11C81.3508 38.01 81.3442 37.9467 81.3308 37.92C81.3242 37.8867 81.2908 37.8467 81.2308 37.8C81.1708 37.7533 81.1242 37.7267 81.0908 37.72C81.0575 37.7067 80.9808 37.7 80.8608 37.7H79.5208C79.4008 37.7 79.3242 37.7067 79.2908 37.72C79.2575 37.7267 79.2108 37.7533 79.1508 37.8C79.0908 37.8467 79.0542 37.8867 79.0408 37.92C79.0342 37.9467 79.0308 38.01 79.0308 38.11V40.89C79.0308 40.99 79.0342 41.0567 79.0408 41.09C79.0542 41.1167 79.0908 41.1533 79.1508 41.2C79.2108 41.2467 79.2575 41.2767 79.2908 41.29C79.3242 41.2967 79.4008 41.3 79.5208 41.3H80.8608C80.9808 41.3 81.0575 41.2967 81.0908 41.29C81.1242 41.2767 81.1708 41.2467 81.2308 41.2C81.2908 41.1533 81.3242 41.1167 81.3308 41.09C81.3442 41.0567 81.3508 40.99 81.3508 40.89V40.7H82.1908V41.1C82.1908 41.3 82.1108 41.4667 81.9508 41.6L81.7108 41.8C81.5508 41.9333 81.3908 42 81.2308 42H79.1508C78.9908 42 78.8308 41.9333 78.6708 41.8L78.4308 41.6C78.2708 41.4667 78.1908 41.3 78.1908 41.1V37.9C78.1908 37.7 78.2708 37.5333 78.4308 37.4L78.6708 37.2C78.8308 37.0667 78.9908 37 79.1508 37H81.2308C81.3908 37 81.5508 37.0667 81.7108 37.2L81.9508 37.4C82.1108 37.5333 82.1908 37.7 82.1908 37.9V38.3ZM84.3073 37H86.7073C86.8673 37 87.0273 37.0667 87.1873 37.2L87.4273 37.4C87.5873 37.5333 87.6673 37.7 87.6673 37.9V41.1C87.6673 41.3 87.5873 41.4667 87.4273 41.6L87.1873 41.8C87.0273 41.9333 86.8673 42 86.7073 42H84.3073C84.1473 42 83.9873 41.9333 83.8273 41.8L83.5873 41.6C83.4273 41.4667 83.3473 41.3 83.3473 41.1V37.9C83.3473 37.7 83.4273 37.5333 83.5873 37.4L83.8273 37.2C83.9873 37.0667 84.1473 37 84.3073 37ZM86.8273 40.89V38.11C86.8273 38.01 86.8206 37.9467 86.8073 37.92C86.8006 37.8867 86.7673 37.8467 86.7073 37.8C86.6473 37.7533 86.6006 37.7267 86.5673 37.72C86.534 37.7067 86.4573 37.7 86.3373 37.7H84.6773C84.5573 37.7 84.4806 37.7067 84.4473 37.72C84.414 37.7267 84.3673 37.7533 84.3073 37.8C84.2473 37.8467 84.2106 37.8867 84.1973 37.92C84.1906 37.9467 84.1873 38.01 84.1873 38.11V40.89C84.1873 40.99 84.1906 41.0567 84.1973 41.09C84.2106 41.1167 84.2473 41.1533 84.3073 41.2C84.3673 41.2467 84.414 41.2767 84.4473 41.29C84.4806 41.2967 84.5573 41.3 84.6773 41.3H86.3373C86.4573 41.3 86.534 41.2967 86.5673 41.29C86.6006 41.2767 86.6473 41.2467 86.7073 41.2C86.7673 41.1533 86.8006 41.1167 86.8073 41.09C86.8206 41.0567 86.8273 40.99 86.8273 40.89ZM91.6344 37.7H90.2044C90.0844 37.7 90.0077 37.7067 89.9744 37.72C89.9411 37.7267 89.8944 37.7533 89.8344 37.8C89.7744 37.8467 89.7377 37.8867 89.7244 37.92C89.7177 37.9467 89.7144 38.01 89.7144 38.11V40.89C89.7144 40.99 89.7177 41.0567 89.7244 41.09C89.7377 41.1167 89.7744 41.1533 89.8344 41.2C89.8944 41.2467 89.9411 41.2767 89.9744 41.29C90.0077 41.2967 90.0844 41.3 90.2044 41.3H91.6244C91.7444 41.3 91.8244 41.2933 91.8644 41.28C91.9111 41.2667 91.9944 41.2233 92.1144 41.15C92.2344 41.0767 92.3044 41.0233 92.3244 40.99C92.3444 40.9567 92.3544 40.89 92.3544 40.79V38.3C92.3544 38.1667 92.2744 38.0333 92.1144 37.9C91.9544 37.7667 91.7944 37.7 91.6344 37.7ZM91.7444 42H89.8344C89.6744 42 89.5144 41.9333 89.3544 41.8L89.1144 41.6C88.9544 41.4667 88.8744 41.3 88.8744 41.1V37.9C88.8744 37.7 88.9544 37.5333 89.1144 37.4L89.3544 37.2C89.5144 37.0667 89.6744 37 89.8344 37H91.5944C91.7544 37 91.9144 37.0667 92.0744 37.2C92.2344 37.36 92.3144 37.46 92.3144 37.5H92.3544V34.6H93.1944V40.89C93.1944 40.99 93.1977 41.0567 93.2044 41.09C93.2177 41.1167 93.2544 41.1533 93.3144 41.2C93.3744 41.2467 93.4077 41.2867 93.4144 41.32C93.4277 41.3467 93.4344 41.41 93.4344 41.51V42H93.0844C92.9644 42 92.8811 41.9933 92.8344 41.98C92.7944 41.96 92.7344 41.9167 92.6544 41.85C92.5477 41.7633 92.4944 41.68 92.4944 41.6H92.4544C92.4544 41.68 92.3811 41.7633 92.2344 41.85C92.1144 41.9233 92.0311 41.9667 91.9844 41.98C91.9444 41.9933 91.8644 42 91.7444 42ZM98.3961 41.1L98.9961 41.6L98.7561 41.8C98.6361 41.9 98.5528 41.96 98.5061 41.98C98.4661 41.9933 98.3861 42 98.2661 42H95.5961C95.4361 42 95.2761 41.9333 95.1161 41.8L94.8761 41.6C94.7161 41.4667 94.6361 41.3 94.6361 41.1V37.9C94.6361 37.7 94.7161 37.5333 94.8761 37.4L95.1161 37.2C95.2761 37.0667 95.4361 37 95.5961 37H97.9261C98.0595 37 98.2195 37.0667 98.4061 37.2L98.6561 37.4C98.8161 37.52 98.8961 37.6867 98.8961 37.9V39.95H95.4761V40.89C95.4761 40.99 95.4795 41.0567 95.4861 41.09C95.4995 41.1167 95.5361 41.1533 95.5961 41.2C95.6561 41.2467 95.7028 41.2767 95.7361 41.29C95.7695 41.2967 95.8461 41.3 95.9661 41.3H97.9061C98.0261 41.3 98.1061 41.2933 98.1461 41.28C98.1928 41.26 98.2761 41.2 98.3961 41.1ZM98.0561 39.3V38.11C98.0561 38.01 98.0495 37.9467 98.0361 37.92C98.0295 37.8867 97.9961 37.8467 97.9361 37.8C97.8761 37.7533 97.8295 37.7267 97.7961 37.72C97.7628 37.7067 97.6861 37.7 97.5661 37.7H95.9661C95.8461 37.7 95.7695 37.7067 95.7361 37.72C95.7028 37.7267 95.6561 37.7533 95.5961 37.8C95.5361 37.8467 95.4995 37.8867 95.4861 37.92C95.4795 37.9467 95.4761 38.01 95.4761 38.11V39.3H98.0561ZM100.875 42.1L100.635 43.2L100.335 43V42C100.282 42 100.228 41.9733 100.175 41.92C100.135 41.8867 100.112 41.8567 100.105 41.83C100.098 41.7967 100.095 41.7233 100.095 41.61V41.44C100.095 41.28 100.122 41.1733 100.175 41.12C100.228 41.0733 100.338 41.05 100.505 41.05C100.685 41.05 100.802 41.0733 100.855 41.12C100.908 41.1733 100.935 41.28 100.935 41.44V41.61C100.935 41.77 100.915 41.9333 100.875 42.1ZM110.176 36.3H109.336V36.11C109.336 36.01 109.329 35.9467 109.316 35.92C109.309 35.8867 109.276 35.8467 109.216 35.8C109.156 35.7533 109.109 35.7267 109.076 35.72C109.043 35.7067 108.966 35.7 108.846 35.7H106.366C106.246 35.7 106.169 35.7067 106.136 35.72C106.103 35.7267 106.056 35.7533 105.996 35.8C105.936 35.8467 105.899 35.8867 105.886 35.92C105.879 35.9467 105.876 36.01 105.876 36.11V40.89C105.876 40.99 105.879 41.0567 105.886 41.09C105.899 41.1167 105.936 41.1533 105.996 41.2C106.056 41.2467 106.103 41.2767 106.136 41.29C106.169 41.2967 106.246 41.3 106.366 41.3H108.846C108.966 41.3 109.043 41.2967 109.076 41.29C109.109 41.2767 109.156 41.2467 109.216 41.2C109.276 41.1533 109.309 41.1167 109.316 41.09C109.329 41.0567 109.336 40.99 109.336 40.89V40.7H110.176V41.1C110.176 41.3 110.096 41.4667 109.936 41.6L109.696 41.8C109.536 41.9333 109.376 42 109.216 42H105.996C105.836 42 105.676 41.9333 105.516 41.8L105.276 41.6C105.116 41.4667 105.036 41.3 105.036 41.1V35.9C105.036 35.7 105.116 35.5333 105.276 35.4L105.516 35.2C105.676 35.0667 105.836 35 105.996 35H109.216C109.376 35 109.536 35.0667 109.696 35.2L109.936 35.4C110.096 35.5333 110.176 35.7 110.176 35.9V36.3ZM111.267 37H111.617C111.737 37 111.817 37.01 111.857 37.03C111.904 37.0433 111.967 37.0833 112.047 37.15C112.154 37.2367 112.207 37.32 112.207 37.4H112.247C112.247 37.32 112.32 37.2367 112.467 37.15C112.587 37.0767 112.667 37.0333 112.707 37.02C112.754 37.0067 112.837 37 112.957 37H113.877C114.037 37 114.197 37.0667 114.357 37.2L114.597 37.4L113.997 37.9L113.877 37.8C113.817 37.7533 113.77 37.7267 113.737 37.72C113.704 37.7067 113.627 37.7 113.507 37.7H113.077C112.957 37.7 112.874 37.7067 112.827 37.72C112.787 37.7333 112.707 37.7767 112.587 37.85C112.467 37.9233 112.397 37.9767 112.377 38.01C112.357 38.0433 112.347 38.11 112.347 38.21V42H111.507V38.11C111.507 38.01 111.5 37.9467 111.487 37.92C111.48 37.8867 111.447 37.8467 111.387 37.8C111.327 37.7533 111.29 37.7167 111.277 37.69C111.27 37.6567 111.267 37.59 111.267 37.49V37ZM119.207 41.1L119.807 41.6L119.567 41.8C119.447 41.9 119.363 41.96 119.317 41.98C119.277 41.9933 119.197 42 119.077 42H116.407C116.247 42 116.087 41.9333 115.927 41.8L115.687 41.6C115.527 41.4667 115.447 41.3 115.447 41.1V37.9C115.447 37.7 115.527 37.5333 115.687 37.4L115.927 37.2C116.087 37.0667 116.247 37 116.407 37H118.737C118.87 37 119.03 37.0667 119.217 37.2L119.467 37.4C119.627 37.52 119.707 37.6867 119.707 37.9V39.95H116.287V40.89C116.287 40.99 116.29 41.0567 116.297 41.09C116.31 41.1167 116.347 41.1533 116.407 41.2C116.467 41.2467 116.513 41.2767 116.547 41.29C116.58 41.2967 116.657 41.3 116.777 41.3H118.717C118.837 41.3 118.917 41.2933 118.957 41.28C119.003 41.26 119.087 41.2 119.207 41.1ZM118.867 39.3V38.11C118.867 38.01 118.86 37.9467 118.847 37.92C118.84 37.8867 118.807 37.8467 118.747 37.8C118.687 37.7533 118.64 37.7267 118.607 37.72C118.573 37.7067 118.497 37.7 118.377 37.7H116.777C116.657 37.7 116.58 37.7067 116.547 37.72C116.513 37.7267 116.467 37.7533 116.407 37.8C116.347 37.8467 116.31 37.8867 116.297 37.92C116.29 37.9467 116.287 38.01 116.287 38.11V39.3H118.867ZM124.426 41.6H124.386C124.386 41.68 124.312 41.7633 124.166 41.85C124.046 41.9233 123.962 41.9667 123.916 41.98C123.876 41.9933 123.796 42 123.676 42H121.966C121.806 42 121.646 41.9333 121.486 41.8L121.246 41.6C121.086 41.4667 121.006 41.3 121.006 41.1V39.9C121.006 39.7 121.086 39.5333 121.246 39.4L121.486 39.2C121.646 39.0667 121.806 39 121.966 39H123.756C123.882 39 123.962 39.0067 123.996 39.02C124.029 39.0267 124.072 39.0533 124.126 39.1C124.206 39.1667 124.246 39.2333 124.246 39.3H124.286V38.11C124.286 38.01 124.279 37.9467 124.266 37.92C124.259 37.8867 124.226 37.8467 124.166 37.8C124.106 37.7533 124.059 37.7267 124.026 37.72C123.992 37.7067 123.916 37.7 123.796 37.7H122.176C122.056 37.7 121.972 37.71 121.926 37.73C121.886 37.7433 121.806 37.8 121.686 37.9L121.086 37.4L121.326 37.2C121.446 37.1 121.526 37.0433 121.566 37.03C121.612 37.01 121.696 37 121.816 37H124.166C124.326 37 124.486 37.0667 124.646 37.2L124.886 37.4C125.046 37.5333 125.126 37.7 125.126 37.9V40.89C125.126 40.99 125.129 41.0567 125.136 41.09C125.149 41.1167 125.186 41.1533 125.246 41.2C125.306 41.2467 125.339 41.2867 125.346 41.32C125.359 41.3467 125.366 41.41 125.366 41.51V42H125.016C124.896 42 124.812 41.9933 124.766 41.98C124.726 41.96 124.666 41.9167 124.586 41.85C124.479 41.7633 124.426 41.68 124.426 41.6ZM121.846 40.11V40.89C121.846 40.99 121.849 41.0567 121.856 41.09C121.869 41.1167 121.906 41.1533 121.966 41.2C122.026 41.2467 122.072 41.2767 122.106 41.29C122.139 41.2967 122.216 41.3 122.336 41.3H123.556C123.676 41.3 123.756 41.2933 123.796 41.28C123.842 41.2667 123.926 41.2233 124.046 41.15C124.166 41.0767 124.236 41.0233 124.256 40.99C124.276 40.9567 124.286 40.89 124.286 40.79V40.11C124.286 40.01 124.279 39.9467 124.266 39.92C124.259 39.8867 124.226 39.8467 124.166 39.8C124.106 39.7533 124.059 39.7267 124.026 39.72C123.992 39.7067 123.916 39.7 123.796 39.7H122.336C122.216 39.7 122.139 39.7067 122.106 39.72C122.072 39.7267 122.026 39.7533 121.966 39.8C121.906 39.8467 121.869 39.8867 121.856 39.92C121.849 39.9467 121.846 40.01 121.846 40.11ZM127.72 35.6V37H129C129.086 37.0667 129.136 37.12 129.15 37.16C129.17 37.1933 129.18 37.2867 129.18 37.44V37.7H127.72V40.89C127.72 40.99 127.723 41.0567 127.73 41.09C127.743 41.1167 127.78 41.1533 127.84 41.2C127.9 41.2467 127.946 41.2767 127.98 41.29C128.013 41.2967 128.09 41.3 128.21 41.3H129.12C129.206 41.3667 129.256 41.42 129.27 41.46C129.29 41.4933 129.3 41.5867 129.3 41.74V42H127.84C127.68 42 127.52 41.9333 127.36 41.8L127.12 41.6C126.96 41.4667 126.88 41.3 126.88 41.1V37.7H126.4C126.313 37.6333 126.26 37.5833 126.24 37.55C126.226 37.51 126.22 37.4133 126.22 37.26V37H126.88V35.6H127.72ZM134.109 41.1L134.709 41.6L134.469 41.8C134.349 41.9 134.266 41.96 134.219 41.98C134.179 41.9933 134.099 42 133.979 42H131.309C131.149 42 130.989 41.9333 130.829 41.8L130.589 41.6C130.429 41.4667 130.349 41.3 130.349 41.1V37.9C130.349 37.7 130.429 37.5333 130.589 37.4L130.829 37.2C130.989 37.0667 131.149 37 131.309 37H133.639C133.772 37 133.932 37.0667 134.119 37.2L134.369 37.4C134.529 37.52 134.609 37.6867 134.609 37.9V39.95H131.189V40.89C131.189 40.99 131.192 41.0567 131.199 41.09C131.212 41.1167 131.249 41.1533 131.309 41.2C131.369 41.2467 131.416 41.2767 131.449 41.29C131.482 41.2967 131.559 41.3 131.679 41.3H133.619C133.739 41.3 133.819 41.2933 133.859 41.28C133.906 41.26 133.989 41.2 134.109 41.1ZM133.769 39.3V38.11C133.769 38.01 133.762 37.9467 133.749 37.92C133.742 37.8867 133.709 37.8467 133.649 37.8C133.589 37.7533 133.542 37.7267 133.509 37.72C133.476 37.7067 133.399 37.7 133.279 37.7H131.679C131.559 37.7 131.482 37.7067 131.449 37.72C131.416 37.7267 131.369 37.7533 131.309 37.8C131.249 37.8467 131.212 37.8867 131.199 37.92C131.192 37.9467 131.189 38.01 131.189 38.11V39.3H133.769ZM139.458 35.6V37H140.738C140.825 37.0667 140.875 37.12 140.888 37.16C140.908 37.1933 140.918 37.2867 140.918 37.44V37.7H139.458V40.89C139.458 40.99 139.461 41.0567 139.468 41.09C139.481 41.1167 139.518 41.1533 139.578 41.2C139.638 41.2467 139.685 41.2767 139.718 41.29C139.751 41.2967 139.828 41.3 139.948 41.3H140.858C140.945 41.3667 140.995 41.42 141.008 41.46C141.028 41.4933 141.038 41.5867 141.038 41.74V42H139.578C139.418 42 139.258 41.9333 139.098 41.8L138.858 41.6C138.698 41.4667 138.618 41.3 138.618 41.1V37.7H138.138C138.051 37.6333 137.998 37.5833 137.978 37.55C137.965 37.51 137.958 37.4133 137.958 37.26V37H138.618V35.6H139.458ZM143.567 37H145.317C145.477 37 145.637 37.0667 145.797 37.2L146.037 37.4C146.197 37.5333 146.277 37.7 146.277 37.9V42H145.437V38.11C145.437 38.01 145.431 37.9467 145.417 37.92C145.411 37.8867 145.377 37.8467 145.317 37.8C145.257 37.7533 145.211 37.7267 145.177 37.72C145.144 37.7067 145.067 37.7 144.947 37.7H143.667C143.541 37.7 143.454 37.7067 143.407 37.72C143.367 37.7333 143.287 37.7767 143.167 37.85C143.047 37.9233 142.977 37.9767 142.957 38.01C142.937 38.0433 142.927 38.11 142.927 38.21V42H142.087V34.6H142.927V37.47H142.967C142.967 37.41 143.041 37.3167 143.187 37.19C143.334 37.0633 143.461 37 143.567 37ZM151.238 41.1L151.838 41.6L151.598 41.8C151.478 41.9 151.395 41.96 151.348 41.98C151.308 41.9933 151.228 42 151.108 42H148.438C148.278 42 148.118 41.9333 147.958 41.8L147.718 41.6C147.558 41.4667 147.478 41.3 147.478 41.1V37.9C147.478 37.7 147.558 37.5333 147.718 37.4L147.958 37.2C148.118 37.0667 148.278 37 148.438 37H150.768C150.901 37 151.061 37.0667 151.248 37.2L151.498 37.4C151.658 37.52 151.738 37.6867 151.738 37.9V39.95H148.318V40.89C148.318 40.99 148.321 41.0567 148.328 41.09C148.341 41.1167 148.378 41.1533 148.438 41.2C148.498 41.2467 148.545 41.2767 148.578 41.29C148.611 41.2967 148.688 41.3 148.808 41.3H150.748C150.868 41.3 150.948 41.2933 150.988 41.28C151.035 41.26 151.118 41.2 151.238 41.1ZM150.898 39.3V38.11C150.898 38.01 150.891 37.9467 150.878 37.92C150.871 37.8867 150.838 37.8467 150.778 37.8C150.718 37.7533 150.671 37.7267 150.638 37.72C150.605 37.7067 150.528 37.7 150.408 37.7H148.808C148.688 37.7 148.611 37.7067 148.578 37.72C148.545 37.7267 148.498 37.7533 148.438 37.8C148.378 37.8467 148.341 37.8867 148.328 37.92C148.321 37.9467 148.318 38.01 148.318 38.11V39.3H150.898ZM155.907 37.7H155.367C155.28 37.6333 155.227 37.5833 155.207 37.55C155.194 37.51 155.187 37.4133 155.187 37.26V37H155.907V35.74C155.907 35.54 155.987 35.3733 156.147 35.24L156.387 35.04C156.547 34.9067 156.707 34.84 156.867 34.84H158.067C158.154 34.9067 158.204 34.96 158.217 35C158.237 35.0333 158.247 35.1267 158.247 35.28V35.54H157.177C157.05 35.54 156.947 35.5733 156.867 35.64C156.807 35.6867 156.77 35.7267 156.757 35.76C156.75 35.7867 156.747 35.85 156.747 35.95V37H157.867C157.954 37.0667 158.004 37.12 158.017 37.16C158.037 37.1933 158.047 37.2867 158.047 37.44V37.7H156.747V42H155.907V37.7ZM161.531 42H159.961C159.801 42 159.641 41.9333 159.481 41.8L159.241 41.6C159.081 41.4667 159.001 41.3 159.001 41.1V37H159.841V40.89C159.841 40.99 159.845 41.0567 159.851 41.09C159.865 41.1167 159.901 41.1533 159.961 41.2C160.021 41.2467 160.068 41.2767 160.101 41.29C160.135 41.2967 160.211 41.3 160.331 41.3H161.411C161.531 41.3 161.611 41.2933 161.651 41.28C161.698 41.2667 161.781 41.2233 161.901 41.15C162.021 41.0767 162.091 41.0233 162.111 40.99C162.131 40.9567 162.141 40.89 162.141 40.79V37H162.981V40.89C162.981 40.99 162.985 41.0567 162.991 41.09C163.005 41.1167 163.041 41.1533 163.101 41.2C163.161 41.2467 163.195 41.2867 163.201 41.32C163.215 41.3467 163.221 41.41 163.221 41.51V42H162.871C162.751 42 162.668 41.9933 162.621 41.98C162.581 41.96 162.521 41.9167 162.441 41.85C162.335 41.7633 162.281 41.68 162.281 41.6H162.241C162.241 41.68 162.168 41.7633 162.021 41.85C161.901 41.9233 161.818 41.9667 161.771 41.98C161.731 41.9933 161.651 42 161.531 42ZM165.571 35.6V37H166.851C166.938 37.0667 166.988 37.12 167.001 37.16C167.021 37.1933 167.031 37.2867 167.031 37.44V37.7H165.571V40.89C165.571 40.99 165.575 41.0567 165.581 41.09C165.595 41.1167 165.631 41.1533 165.691 41.2C165.751 41.2467 165.798 41.2767 165.831 41.29C165.865 41.2967 165.941 41.3 166.061 41.3H166.971C167.058 41.3667 167.108 41.42 167.121 41.46C167.141 41.4933 167.151 41.5867 167.151 41.74V42H165.691C165.531 42 165.371 41.9333 165.211 41.8L164.971 41.6C164.811 41.4667 164.731 41.3 164.731 41.1V37.7H164.251C164.165 37.6333 164.111 37.5833 164.091 37.55C164.078 37.51 164.071 37.4133 164.071 37.26V37H164.731V35.6H165.571ZM170.731 42H169.161C169.001 42 168.841 41.9333 168.681 41.8L168.441 41.6C168.281 41.4667 168.201 41.3 168.201 41.1V37H169.041V40.89C169.041 40.99 169.044 41.0567 169.051 41.09C169.064 41.1167 169.101 41.1533 169.161 41.2C169.221 41.2467 169.267 41.2767 169.301 41.29C169.334 41.2967 169.411 41.3 169.531 41.3H170.611C170.731 41.3 170.811 41.2933 170.851 41.28C170.897 41.2667 170.981 41.2233 171.101 41.15C171.221 41.0767 171.291 41.0233 171.311 40.99C171.331 40.9567 171.341 40.89 171.341 40.79V37H172.181V40.89C172.181 40.99 172.184 41.0567 172.191 41.09C172.204 41.1167 172.241 41.1533 172.301 41.2C172.361 41.2467 172.394 41.2867 172.401 41.32C172.414 41.3467 172.421 41.41 172.421 41.51V42H172.071C171.951 42 171.867 41.9933 171.821 41.98C171.781 41.96 171.721 41.9167 171.641 41.85C171.534 41.7633 171.481 41.68 171.481 41.6H171.441C171.441 41.68 171.367 41.7633 171.221 41.85C171.101 41.9233 171.017 41.9667 170.971 41.98C170.931 41.9933 170.851 42 170.731 42ZM173.621 37H173.971C174.091 37 174.171 37.01 174.211 37.03C174.257 37.0433 174.321 37.0833 174.401 37.15C174.507 37.2367 174.561 37.32 174.561 37.4H174.601C174.601 37.32 174.674 37.2367 174.821 37.15C174.941 37.0767 175.021 37.0333 175.061 37.02C175.107 37.0067 175.191 37 175.311 37H176.231C176.391 37 176.551 37.0667 176.711 37.2L176.951 37.4L176.351 37.9L176.231 37.8C176.171 37.7533 176.124 37.7267 176.091 37.72C176.057 37.7067 175.981 37.7 175.861 37.7H175.431C175.311 37.7 175.227 37.7067 175.181 37.72C175.141 37.7333 175.061 37.7767 174.941 37.85C174.821 37.9233 174.751 37.9767 174.731 38.01C174.711 38.0433 174.701 38.11 174.701 38.21V42H173.861V38.11C173.861 38.01 173.854 37.9467 173.841 37.92C173.834 37.8867 173.801 37.8467 173.741 37.8C173.681 37.7533 173.644 37.7167 173.631 37.69C173.624 37.6567 173.621 37.59 173.621 37.49V37ZM181.56 41.1L182.16 41.6L181.92 41.8C181.8 41.9 181.717 41.96 181.67 41.98C181.63 41.9933 181.55 42 181.43 42H178.76C178.6 42 178.44 41.9333 178.28 41.8L178.04 41.6C177.88 41.4667 177.8 41.3 177.8 41.1V37.9C177.8 37.7 177.88 37.5333 178.04 37.4L178.28 37.2C178.44 37.0667 178.6 37 178.76 37H181.09C181.224 37 181.384 37.0667 181.57 37.2L181.82 37.4C181.98 37.52 182.06 37.6867 182.06 37.9V39.95H178.64V40.89C178.64 40.99 178.644 41.0567 178.65 41.09C178.664 41.1167 178.7 41.1533 178.76 41.2C178.82 41.2467 178.867 41.2767 178.9 41.29C178.934 41.2967 179.01 41.3 179.13 41.3H181.07C181.19 41.3 181.27 41.2933 181.31 41.28C181.357 41.26 181.44 41.2 181.56 41.1ZM181.22 39.3V38.11C181.22 38.01 181.214 37.9467 181.2 37.92C181.194 37.8867 181.16 37.8467 181.1 37.8C181.04 37.7533 180.994 37.7267 180.96 37.72C180.927 37.7067 180.85 37.7 180.73 37.7H179.13C179.01 37.7 178.934 37.7067 178.9 37.72C178.867 37.7267 178.82 37.7533 178.76 37.8C178.7 37.8467 178.664 37.8867 178.65 37.92C178.644 37.9467 178.64 38.01 178.64 38.11V39.3H181.22Z" fill="#F92761"/>
<defs>
<filter id="filter0_n_909_405" x="2.08801" y="2.28" width="165.411" height="27.72" filterUnits="userSpaceOnUse" color-interpolation-filters="sRGB">
<feFlood flood-opacity="0" result="BackgroundImageFix"/>
<feBlend mode="normal" in="SourceGraphic" in2="BackgroundImageFix" result="shape"/>
<feTurbulence type="fractalNoise" baseFrequency="0.069930069148540497 0.069930069148540497" stitchTiles="stitch" numOctaves="3" result="noise" seed="8144" />
<feColorMatrix in="noise" type="luminanceToAlpha" result="alphaNoise" />
<feComponentTransfer in="alphaNoise" result="coloredNoise1">
<feFuncA type="discrete" tableValues="0 0 0 0 0 0 0 0 0 0 0 0 0 0 0 0 1 1 1 1 1 1 1 1 1 1 1 1 1 1 1 1 1 1 0 0 0 0 0 0 0 0 0 0 0 0 0 0 0 0 0 0 0 0 0 0 0 0 0 0 0 0 0 0 0 0 0 0 0 0 0 0 0 0 0 0 0 0 0 0 0 0 0 0 0 0 0 0 0 0 0 0 0 0 0 0 0 0 0 0 "/>
</feComponentTransfer>
<feComposite operator="in" in2="shape" in="coloredNoise1" result="noise1Clipped" />
<feComponentTransfer in="alphaNoise" result="coloredNoise2">
<feFuncA type="discrete" tableValues="0 0 0 0 0 0 0 0 0 0 0 0 0 0 0 0 0 0 0 0 0 0 0 0 0 0 0 0 0 0 0 0 0 0 0 0 0 0 0 0 0 0 0 0 0 0 0 0 0 0 0 0 0 0 0 0 0 0 0 0 0 0 0 0 0 0 1 1 1 1 1 1 1 1 1 1 1 1 1 1 1 1 1 1 0 0 0 0 0 0 0 0 0 0 0 0 0 0 0 0 "/>
</feComponentTransfer>
<feComposite operator="in" in2="shape" in="coloredNoise2" result="noise2Clipped" />
<feFlood flood-color="rgba(0, 0, 0, 0.25)" result="color1Flood" />
<feComposite operator="in" in2="noise1Clipped" in="color1Flood" result="color1" />
<feFlood flood-color="rgba(255, 255, 255, 0.25)" result="color2Flood" />
<feComposite operator="in" in2="noise2Clipped" in="color2Flood" result="color2" />
<feMerge result="effect1_noise_909_405">
<feMergeNode in="shape" />
<feMergeNode in="color1" />
<feMergeNode in="color2" />
</feMerge>
</filter>
<filter id="filter1_n_909_405" x="172" y="9" width="38" height="21" filterUnits="userSpaceOnUse" color-interpolation-filters="sRGB">
<feFlood flood-opacity="0" result="BackgroundImageFix"/>
<feBlend mode="normal" in="SourceGraphic" in2="BackgroundImageFix" result="shape"/>
<feTurbulence type="fractalNoise" baseFrequency="0.25 0.25" stitchTiles="stitch" numOctaves="3" result="noise" seed="9977" />
<feComponentTransfer in="noise" result="coloredNoise1">
<feFuncR type="linear" slope="2" intercept="-0.5" />
<feFuncG type="linear" slope="2" intercept="-0.5" />
<feFuncB type="linear" slope="2" intercept="-0.5" />
<feFuncA type="discrete" tableValues="1 1 1 1 1 1 1 1 1 1 1 1 1 1 1 1 1 1 1 1 1 1 1 1 1 1 1 1 1 1 1 1 1 1 1 1 1 1 1 1 1 1 1 1 1 1 1 1 1 1 1 0 0 0 0 0 0 0 0 0 0 0 0 0 0 0 0 0 0 0 0 0 0 0 0 0 0 0 0 0 0 0 0 0 0 0 0 0 0 0 0 0 0 0 0 0 0 0 0 0 "/>
</feComponentTransfer>
<feComposite operator="in" in2="shape" in="coloredNoise1" result="noise1Clipped" />
<feComponentTransfer in="noise1Clipped" result="color1">
<feFuncA type="table" tableValues="0 0.15" />
</feComponentTransfer>
<feMerge result="effect1_noise_909_405">
<feMergeNode in="shape" />
<feMergeNode in="color1" />
</feMerge>
</filter>
</defs>
</svg>
